# xmcd
#
# Track frame offsets: 
#        150
#        3370
#        19660
#        37510
#        54547
#        74052
#        77982
#        94787
#        114920
#        133930
#        138477
#        156262
#        172360
#        191510
#
# Disc length: 2798 seconds
#
# Revision: 3
# Processed by: cddbd v1.5.2PL0 Copyright (c) Steve Scherf et al.
# Submitted via: ExactAudioCopy v1.0b3
#
DISCID=be0aec0e
DTITLE=Mauro Scocco - Godmorgon Sverige
DYEAR=1996
DGENRE=Pop
TTITLE0=Intro
TTITLE1=Tillbaks till kärleken
TTITLE2=Om det är O.K.
TTITLE3=Plåster
TTITLE4=Vissa saker
TTITLE5=El Diablo
TTITLE6=Om du säger
TTITLE7=Dit dagarna för mig
TTITLE8=Kärleken var här
TTITLE9=Interlude
TTITLE10=Det är dags
TTITLE11=För sista gången
TTITLE12=Bilder av dom vi var
TTITLE13=Som främlingar
EXTD=
EXTT0=
EXTT1=
EXTT2=
EXTT3=
EXTT4=
EXTT5=
EXTT6=
EXTT7=
EXTT8=
EXTT9=
EXTT10=
EXTT11=
EXTT12=
EXTT13=
PLAYORDER=
